<svg width="16" height="16" viewBox="0 0 16 16" fill="none" xmlns="http://www.w3.org/2000/svg">
<path fill-rule="evenodd" clip-rule="evenodd" d="M16 8L15.0588 8C15.0588 11.8927 11.8927 15.0588 8 15.0588C4.10729 15.0588 0.941174 11.8927 0.941174 8C0.941174 4.10729 4.10729 0.941175 8 0.941175C10.2259 0.941175 12.2993 1.99623 13.6311 3.76471L10.3529 3.76471L10.3529 4.70588L15.0588 4.70588L15.0588 -4.11401e-08L14.1176 -8.22801e-08L14.1176 2.85742C12.6052 1.05882 10.3774 -2.45771e-07 8 -3.49691e-07C3.58871 -5.42515e-07 -1.56867e-07 3.58871 -3.49691e-07 8C-5.42515e-07 12.4113 3.58871 16 8 16C12.4113 16 16 12.4113 16 8Z" fill="#50495B"/>
</svg>
