<svg width="49" height="60" viewBox="0 0 49 60" fill="none" xmlns="http://www.w3.org/2000/svg">
<g clip-path="url(#clip0_149_278)">
<path d="M41.4931 60H6.9L0 53.131V6.37241L6.37241 0H42.0517L48.3621 6.32069V53.131L41.4931 60ZM7.35517 58.9655H41.0793L47.3483 52.7586V6.73448L41.6276 1.03448H6.78621L1.03448 6.78621V52.7586L7.35517 58.9655Z" fill="#50495B"/>
<path d="M38.0169 54.8276H10.7996L5.43066 49.2103V10.7896L11.0996 4.90344H37.1272L43.3341 10.7379V49.2103L38.0169 54.8276ZM11.0169 54.3207H37.7996L42.8479 49.0552V10.9552L36.9203 5.41034H11.3169L5.93756 10.9965V49.0138L11.0169 54.3207Z" fill="#50495B"/>
<path d="M0.662305 53.1207L0.362305 52.7586L5.47265 48.9931C5.93817 47.5242 12.714 25.6035 10.9658 5.31726L6.40368 0.682779L6.75541 0.331055L11.452 5.0483V5.17243C13.3037 26.1724 6.00024 48.9621 5.92782 49.1897V49.2724L0.662305 53.1207Z" fill="#50495B"/>
<path d="M7.314 59.6483L6.91055 59.338L10.6554 54.4449C10.7485 52.8518 12.114 27.5483 5.48296 11.0483L0.310547 6.77592L0.641581 6.38281L5.89675 10.8001C12.7864 27.8069 11.1416 54.2483 11.1312 54.5483V54.6311L7.314 59.6483Z" fill="#50495B"/>
<path d="M47.7005 53.1207L42.8901 49.2724V49.2C36.1143 31.2517 36.766 5.41033 36.766 5.1724V5.06895L41.6591 0.320679L42.0108 0.693092L37.2418 5.26551C37.2418 7.07585 36.8177 31.6862 43.2832 48.9621L48.0108 52.7586L47.7005 53.1207Z" fill="#50495B"/>
<path d="M41.0795 59.638L37.6554 54.569C35.0795 35.9483 42.8278 11.0173 42.8278 10.769V10.7069L47.6899 6.34143L48.0313 6.71384L43.3244 10.9863C42.8795 12.4242 35.6795 36.4345 38.152 54.4345L41.4933 59.3483L41.0795 59.638Z" fill="#50495B"/>
<path d="M11.0071 54.7655L10.8105 54.3C11.0071 54.2173 30.5174 46.2207 43.1485 48.8586L43.045 49.3655C30.5692 46.7586 11.1933 54.6828 11.0071 54.7655Z" fill="#50495B"/>
<path d="M37.9136 54.7655C37.7274 54.6827 18.3516 46.7586 5.84466 49.3655L5.74121 48.8586C18.3722 46.231 37.8826 54.2172 38.0791 54.3L37.9136 54.7655Z" fill="#50495B"/>
<path d="M11.1621 11.5758C9.25944 11.5935 7.35992 11.4167 5.49316 11.0482L5.59661 10.5517C18.0725 13.1482 36.7345 5.22409 36.9208 5.17236L37.1276 5.63788C36.9621 5.67926 23.0794 11.5758 11.1621 11.5758Z" fill="#50495B"/>
<path d="M37.4586 11.5758C25.4586 11.5758 11.2759 5.67926 11.1104 5.60685L11.3069 5.17236C11.5035 5.25512 30.5586 13.1793 43.0448 10.5827L43.1483 11.0793C41.2736 11.438 39.3671 11.6043 37.4586 11.5758Z" fill="#50495B"/>
</g>
<defs>
<clipPath id="clip0_149_278">
<rect width="48.3621" height="60" fill="white"/>
</clipPath>
</defs>
</svg>
