<svg width="24" height="20" viewBox="0 0 24 20" fill="none" xmlns="http://www.w3.org/2000/svg">
<path d="M21.6675 6.09417C21.6675 2.435 19.1933 1.66667 17.11 1.66667C15.17 1.66667 12.9825 3.76333 12.305 4.57C11.9925 4.9475 11.3417 4.9475 11.0292 4.57C10.3525 3.7625 8.165 1.66667 6.22417 1.66667C4.14083 1.66667 1.66667 2.435 1.66667 6.09417C1.66667 8.47667 4.07583 10.6908 4.10167 10.7167L11.6667 18.0083L19.2192 10.73C19.2583 10.6908 21.6675 8.4775 21.6675 6.09417ZM23.3342 6.09417C23.3342 9.21917 20.47 11.8367 20.3525 11.9533L12.2408 19.7658C12.085 19.9217 11.8758 20 11.6675 20C11.4592 20 11.2508 19.9217 11.0942 19.7658L2.96917 11.9275C2.865 11.8367 0 9.21917 0 6.09417C0 2.27917 2.33083 0 6.22417 0C8.5025 0 10.6383 1.79667 11.6667 2.8125C12.695 1.79667 14.8308 0 17.1092 0C21.0025 0 23.3342 2.27833 23.3342 6.09417Z" fill="#50495B"/>
</svg>
