<svg width="20" height="21" viewBox="0 0 20 21" fill="none" xmlns="http://www.w3.org/2000/svg">
<path d="M15.7834 15.2247L20 19.4413L18.6076 20.8336L14.3911 16.6171C12.875 17.83 10.9522 18.5556 8.86102 18.5556C3.96973 18.5556 0 14.5859 0 9.69463C0 4.80335 3.96973 0.833618 8.86102 0.833618C13.7523 0.833618 17.722 4.80335 17.722 9.69463C17.722 11.7858 16.9964 13.7086 15.7834 15.2247ZM13.8081 14.4942C15.012 13.2534 15.7529 11.561 15.7529 9.69463C15.7529 5.88686 12.6688 2.80273 8.86102 2.80273C5.05324 2.80273 1.96911 5.88686 1.96911 9.69463C1.96911 13.5024 5.05324 16.5865 8.86102 16.5865C10.7273 16.5865 12.4198 15.8457 13.6605 14.6417L13.8081 14.4942Z" fill="#50495B"/>
</svg>
