<svg width="273" height="45" viewBox="0 0 273 45" fill="none" xmlns="http://www.w3.org/2000/svg">
<path d="M71.9941 41.9315C71.9941 40.3126 73.2512 39.1317 74.7939 39.1317C75.7652 39.1317 76.489 39.4936 76.9651 40.2173L76.3176 40.6744C76.0128 40.1983 75.4986 39.8936 74.7939 39.8936C73.6702 39.8936 72.8702 40.7506 72.8702 41.9315C72.8702 43.0933 73.6702 43.9694 74.7939 43.9694C75.5557 43.9694 76.0509 43.6266 76.4128 43.1123L77.0603 43.5694C76.5842 44.2932 75.8224 44.7312 74.7939 44.7312C73.2321 44.7312 71.9941 43.5504 71.9941 41.9315Z" fill="#50495B"/>
<path d="M77.9746 42.7504V39.2079H78.8317V42.6933C78.8317 43.5694 79.2697 43.9694 80.0506 43.9694C80.8315 43.9694 81.2886 43.5694 81.2886 42.6933V39.2079H82.1266V42.7504C82.1266 44.0646 81.2315 44.7312 80.0506 44.7312C78.8698 44.7312 77.9746 44.0646 77.9746 42.7504Z" fill="#50495B"/>
<path d="M82.8887 43.6075L83.5934 43.2266C83.841 43.6456 84.1838 43.9884 84.8504 43.9884C85.4027 43.9884 85.8027 43.6837 85.8027 43.2456C85.8027 42.7695 85.4789 42.56 84.8885 42.2933L84.5266 42.141C83.7267 41.7791 83.2505 41.3791 83.2505 40.5411C83.2505 39.7221 83.8791 39.1508 84.7742 39.1508C85.498 39.1508 85.9932 39.4174 86.3169 40.0078L85.6503 40.4078C85.4408 40.0459 85.1932 39.8745 84.7742 39.8745C84.3362 39.8745 84.0695 40.1412 84.0695 40.503C84.0695 40.903 84.2981 41.0934 84.8504 41.341L85.2123 41.4934C86.1455 41.8934 86.6407 42.3314 86.6407 43.2075C86.6407 44.1598 85.8979 44.7122 84.8694 44.7122C83.8029 44.7312 83.1934 44.217 82.8887 43.6075Z" fill="#50495B"/>
<path d="M88.697 39.9507H87.0781V39.2079H91.1539V39.9507H89.535V44.655H88.697V39.9507Z" fill="#50495B"/>
<path d="M91.4971 41.9315C91.4971 40.3126 92.7541 39.1317 94.3159 39.1317C95.8776 39.1317 97.1156 40.2935 97.1156 41.9315C97.1156 43.5504 95.8586 44.7312 94.3159 44.7312C92.7541 44.7312 91.4971 43.5504 91.4971 41.9315ZM96.2585 41.9315C96.2585 40.7697 95.4586 39.8936 94.3159 39.8936C93.1731 39.8936 92.3732 40.7697 92.3732 41.9315C92.3732 43.0933 93.1922 43.9694 94.3159 43.9694C95.4586 43.9694 96.2585 43.0933 96.2585 41.9315Z" fill="#50495B"/>
<path d="M98.1826 39.1508H98.2778L100.887 42.1981L103.477 39.1508H103.573V44.655H102.754V41.8172C102.754 41.5124 102.792 41.0554 102.792 41.0363C102.773 41.0554 102.525 41.4363 102.297 41.6839L100.925 43.3409H100.83L99.4587 41.6839C99.2492 41.4553 99.0016 41.0744 98.9825 41.0363C98.9825 41.0554 99.0206 41.5124 99.0206 41.8172V44.655H98.2017V39.1508H98.1826Z" fill="#50495B"/>
<path d="M106.696 39.2079H108.524C109.648 39.2079 110.505 39.7412 110.505 40.9411C110.505 41.76 110.067 42.2743 109.4 42.5028L110.676 44.655H109.705L108.524 42.6362H107.534V44.655H106.677V39.2079H106.696ZM108.505 41.9314C109.229 41.9314 109.648 41.6267 109.648 40.9411C109.648 40.2364 109.229 39.9507 108.505 39.9507H107.553V41.9314H108.505Z" fill="#50495B"/>
<path d="M112.505 39.2079H111.667V44.655H112.505V39.2079Z" fill="#50495B"/>
<path d="M115.095 41.4744C114.886 41.2458 114.581 40.8649 114.581 40.8649C114.581 40.8649 114.638 41.322 114.638 41.6458V44.655H113.857V39.1508H113.972L116.981 42.3886C117.19 42.6171 117.495 42.998 117.495 42.998C117.495 42.998 117.438 42.5219 117.438 42.2172V39.2269H118.219V44.7312H118.124L115.095 41.4744Z" fill="#50495B"/>
<path d="M119.266 41.9315C119.266 40.3126 120.446 39.1317 122.065 39.1317C122.903 39.1317 123.551 39.3603 123.989 39.8555L123.418 40.4268C123.113 40.1031 122.713 39.8936 122.046 39.8936C120.904 39.8936 120.123 40.7506 120.123 41.9315C120.123 43.0933 120.923 43.9694 122.161 43.9694C122.713 43.9694 123.189 43.817 123.494 43.6075V42.5981H122.046V41.8553H124.294V44.0265C123.932 44.3503 123.189 44.7312 122.18 44.7312C120.466 44.7312 119.266 43.5504 119.266 41.9315Z" fill="#50495B"/>
<path d="M125.018 43.6075L125.722 43.2266C125.97 43.6456 126.313 43.9884 126.979 43.9884C127.532 43.9884 127.932 43.6837 127.932 43.2456C127.932 42.7695 127.608 42.56 127.017 42.2933L126.656 42.141C125.856 41.7791 125.379 41.3791 125.379 40.5411C125.379 39.7221 126.008 39.1508 126.903 39.1508C127.627 39.1508 128.122 39.4174 128.446 40.0078L127.779 40.4078C127.57 40.0459 127.322 39.8745 126.903 39.8745C126.465 39.8745 126.198 40.1412 126.198 40.503C126.198 40.903 126.427 41.0934 126.979 41.341L127.341 41.4934C128.274 41.8934 128.77 42.3314 128.77 43.2075C128.77 44.1598 128.027 44.7122 126.998 44.7122C125.951 44.7312 125.322 44.217 125.018 43.6075Z" fill="#50495B"/>
<path d="M134.769 42.9218C134.902 42.5981 134.979 42.1981 134.979 41.741H135.74C135.74 42.4457 135.569 43.0742 135.283 43.5504L136.198 44.6741H135.188L134.769 44.1598C134.331 44.5407 133.798 44.7502 133.188 44.7502C131.988 44.7502 131.265 44.1217 131.265 43.2075C131.265 42.3695 131.76 41.9505 132.598 41.5124C132.274 41.1125 132.141 40.7506 132.141 40.3697C132.141 39.7031 132.636 39.1698 133.436 39.1698C134.217 39.1698 134.712 39.665 134.712 40.3506C134.712 40.8839 134.369 41.3029 133.703 41.6648L134.769 42.9218ZM132.998 41.9886C132.407 42.2933 132.141 42.6171 132.141 43.1313C132.141 43.6837 132.503 43.9884 133.188 43.9884C133.607 43.9884 134.007 43.836 134.312 43.5694L132.998 41.9886ZM133.969 40.3316C133.969 40.0078 133.76 39.8174 133.455 39.8174C133.15 39.8174 132.922 40.0269 132.922 40.3506C132.922 40.6363 133.055 40.8268 133.226 41.0553L133.322 41.1506C133.741 40.8839 133.969 40.6554 133.969 40.3316Z" fill="#50495B"/>
<path d="M138.846 39.2079H142.236V39.9507H139.684V41.7029H142.007V42.4647H139.684V44.655H138.846V39.2079Z" fill="#50495B"/>
<path d="M144.159 39.2079H143.321V44.655H144.159V39.2079Z" fill="#50495B"/>
<path d="M146.75 41.4744C146.54 41.2458 146.235 40.8649 146.235 40.8649C146.235 40.8649 146.293 41.322 146.293 41.6458V44.655H145.512V39.1508H145.626L148.635 42.3886C148.845 42.6171 149.149 42.998 149.149 42.998C149.149 42.998 149.092 42.5219 149.092 42.2172V39.2269H149.873V44.7312H149.778L146.75 41.4744Z" fill="#50495B"/>
<path d="M151.168 39.2079H154.634V39.9507H152.025V41.5505H154.349V42.2933H152.025V43.9122H154.749V44.655H151.168V39.2079Z" fill="#50495B"/>
<path d="M157.244 43.7979L157.93 43.3789C158.12 43.7218 158.349 43.9694 158.749 43.9694C159.206 43.9694 159.511 43.7599 159.511 43.1123V39.2079H160.368V43.1313C160.368 44.217 159.72 44.7312 158.806 44.7312C157.987 44.7312 157.511 44.3122 157.244 43.7979Z" fill="#50495B"/>
<path d="M161.644 39.2079H165.11V39.9507H162.482V41.5505H164.805V42.2933H162.482V43.9122H165.205V44.655H161.644V39.2079Z" fill="#50495B"/>
<path d="M165.833 39.2079H166.728L167.699 42.1029C167.795 42.4076 167.909 42.8457 167.909 42.8838C167.909 42.8647 168.042 42.4076 168.176 42.1029L169.433 39.1508H169.528L170.785 42.1029C170.899 42.3886 171.033 42.8266 171.033 42.8838C171.033 42.8647 171.147 42.4076 171.242 42.1029L172.213 39.2079H173.032L171.147 44.7122H171.052L169.699 41.4553C169.585 41.2077 169.49 40.8268 169.471 40.7887C169.471 40.8078 169.337 41.1887 169.223 41.4553L167.833 44.7122H167.738L165.833 39.2079Z" fill="#50495B"/>
<path d="M173.909 39.2079H177.376V39.9507H174.766V41.5505H177.09V42.2933H174.766V43.9122H177.49V44.655H173.909V39.2079Z" fill="#50495B"/>
<path d="M178.632 39.2079H179.47V43.9122H181.984V44.655H178.632V39.2079Z" fill="#50495B"/>
<path d="M182.994 39.2079H183.832V43.9122H186.346V44.655H182.994V39.2079Z" fill="#50495B"/>
<path d="M187.336 39.2079H190.802V39.9507H188.193V41.5505H190.517V42.2933H188.193V43.9122H190.917V44.655H187.336V39.2079Z" fill="#50495B"/>
<path d="M192.06 39.2079H193.888C195.012 39.2079 195.869 39.7412 195.869 40.9411C195.869 41.76 195.431 42.2743 194.765 42.5028L196.041 44.655H195.069L193.888 42.6362H192.898V44.655H192.041V39.2079H192.06ZM193.85 41.9314C194.574 41.9314 194.993 41.6267 194.993 40.9411C194.993 40.2364 194.574 39.9507 193.85 39.9507H192.898V41.9314H193.85Z" fill="#50495B"/>
<path d="M198.249 42.6552L196.345 39.2079H197.297L198.345 41.1696C198.497 41.4743 198.668 41.9505 198.668 41.9505C198.668 41.9505 198.84 41.4743 198.992 41.1696L200.021 39.2079H200.897L199.087 42.6171V44.655H198.23V42.6552H198.249Z" fill="#50495B"/>
<path d="M0 0.77322C0.304735 0.716083 0.628508 0.62085 0.933243 0.62085C8.07546 0.62085 16.17 0.62085 23.3122 0.62085C23.5026 0.62085 28.5308 0.639898 28.7974 0.658944C28.7974 1.15414 26.3786 1.59219 26.3786 2.16357H12.856C12.8179 2.60163 12.7798 2.94445 12.7798 3.30632C12.7798 8.86773 12.7798 14.4482 12.7798 20.0096C12.7798 20.4857 12.7989 20.9619 12.856 21.438C13.0655 23.0188 13.675 23.6474 15.2558 23.9711C15.5224 24.0283 15.77 24.1426 16.0366 24.2187C16.0176 24.314 15.9986 24.4282 15.9795 24.5235H5.52331C5.88519 24.2568 6.03755 24.0092 6.228 24.0092C8.18973 23.895 8.91349 22.5998 8.91349 20.7333C8.93253 17.9907 8.91349 15.2481 8.91349 12.5055C8.91349 9.13438 8.91349 5.7442 8.91349 2.22071H0V0.77322Z" fill="#50495B"/>
<path d="M33.5402 12.1056C35.9209 12.1056 38.3016 12.1056 40.7014 12.1056C40.8919 14.8672 41.0443 17.7432 39.8825 20.2572C38.6826 22.8665 36.1304 24.6187 33.3307 25.0568C30.2643 25.533 27.0265 24.9235 24.4553 23.1903C24.2077 23.0189 23.9791 22.8475 23.7315 22.657C21.7317 21.0762 20.3223 18.8097 19.6176 16.3528C18.7225 13.2674 18.951 9.85817 20.3223 6.96319C21.6936 4.06821 24.2267 1.70651 27.255 0.639942C30.2833 -0.426629 33.7687 -0.159984 36.5494 1.43987C36.9494 1.66842 37.3684 1.93507 37.8255 2.0303C38.2826 2.12553 38.8349 1.9922 39.0825 1.59224C39.292 1.24941 39.3682 0.697078 39.7491 0.716124C39.9967 2.62072 40.0348 4.58245 39.8825 6.48704C39.8825 6.52513 39.273 6.22039 39.1968 6.16326C38.9682 6.01089 38.7778 5.80138 38.5873 5.59188C38.2064 5.15382 37.9207 4.63958 37.5588 4.18248C36.1304 2.25885 33.6925 1.17323 31.2928 1.24941C28.893 1.3256 26.5884 2.54454 25.0647 4.41104C23.5792 6.23944 22.8364 8.58209 22.5697 10.9247C22.284 13.4007 22.5126 15.9529 23.503 18.2384C24.4934 20.5239 26.2837 22.5047 28.5692 23.4379C30.8737 24.3902 33.6735 24.1807 35.6543 22.7142C36.3018 22.238 36.8732 21.6095 37.1779 20.8667C37.5017 20.0668 37.4827 19.1907 37.4827 18.3336L37.4446 15.0767C37.4446 14.6196 37.4255 14.1435 37.197 13.7435C36.8541 13.1722 36.1494 12.9626 35.4828 12.8674C34.8353 12.7722 34.1306 12.7341 33.5782 12.3722C33.5402 12.296 33.464 12.1627 33.5402 12.1056Z" fill="#50495B"/>
<path d="M122.294 1.14278C119.056 2.19031 118.504 5.19956 117.323 7.73266C117.228 7.94217 117.304 8.285 117.399 8.51355C118.847 12.0942 120.313 15.6558 121.78 19.2364C121.818 19.3316 121.913 19.4078 122.104 19.5983C122.37 18.9888 122.618 18.4746 122.846 17.9413C125.056 12.8751 127.284 7.80886 129.493 2.74265C130.389 0.685687 130.389 0.685684 132.693 0.70473C133.036 0.70473 133.569 0.761866 133.817 1.04755C133.855 1.08565 133.836 1.14278 133.779 1.16183C133.169 1.37133 132.445 1.50466 131.969 1.98081C131.036 2.89501 130.446 4.32345 129.931 5.48525C127.17 11.7133 124.541 17.9794 121.837 24.2264C121.665 24.6073 121.304 24.9121 121.018 25.274C120.751 24.9121 120.408 24.6073 120.237 24.2074C118.618 20.3982 117.018 16.589 115.304 12.5513C115.057 13.0084 114.885 13.275 114.752 13.5798C113.228 17.1604 111.704 20.7601 110.162 24.3407C110.009 24.7026 109.667 24.9692 109.4 25.274C109.133 24.9692 108.771 24.7026 108.619 24.3407C105.915 17.9222 103.229 11.5038 100.525 5.08529C99.7817 3.31402 99.0009 1.5237 96.6582 1.23801C96.6963 1.04755 96.8296 0.914233 97.001 0.857095C97.1915 0.799958 97.401 0.742825 97.5915 0.742825C98.8675 0.723779 100.163 0.780914 101.439 0.70473C102.277 0.647593 102.62 0.990412 102.924 1.7332C105.153 7.27556 107.419 12.7798 109.667 18.3222C109.838 18.7603 110.047 19.1983 110.295 19.7887C110.524 19.3126 110.714 18.9698 110.866 18.6079C113.304 13.0655 115.761 7.54222 118.142 1.98081C118.542 1.02851 119.037 0.59045 120.085 0.723772C120.77 0.819001 121.589 0.933284 122.275 0.933284C122.561 0.895192 122.561 1.08565 122.294 1.14278Z" fill="#50495B"/>
<path d="M272.7 0.228524V6.20893C271.786 6.64699 271.519 6.01848 271.177 5.38996C269.405 2.20929 266.453 0.837993 263.025 1.56174C260.073 2.19025 259.025 4.70431 260.911 7.00886C261.92 8.24685 263.311 9.19915 264.644 10.1324C266.072 11.1418 267.729 11.8465 269.12 12.8941C270.186 13.694 271.177 14.7034 271.919 15.8081C273.919 18.7602 273.081 22.1313 269.939 23.8455C267.006 25.4453 263.92 25.6358 260.778 24.4359C260.549 24.3597 260.339 24.2454 260.13 24.1502C258.073 23.255 257.711 23.2741 256.683 24.893C256.626 24.9882 256.454 24.9501 256.454 24.8358V19.2173C257.045 18.8554 257.444 19.2744 257.825 19.941C259.387 22.7789 261.825 24.074 265.063 23.8836C268.453 23.674 270.072 20.5315 268.282 17.6936C267.12 15.8462 265.31 14.7225 263.406 13.7321C262.339 13.1797 261.254 12.6465 260.263 11.9799C257.521 10.0753 256.454 7.61833 257.178 5.06618C257.902 2.51403 260.701 0.30471 263.711 0.266618C265.31 0.247572 266.244 0.418978 267.805 0.818942C268.739 1.06654 269.596 1.58078 270.167 1.7522C271.386 2.15216 271.805 1.90456 272.186 0.685619C272.243 0.514206 272.338 0.361843 272.434 0.19043C272.51 0.19043 272.605 0.209478 272.7 0.228524Z" fill="#50495B"/>
<path d="M232.094 0.933214C232.284 0.85703 232.475 0.685615 232.646 0.704661C236.893 0.837982 238.969 0.495156 243.217 0.704661C244.112 0.742753 244.931 1.04748 245.788 1.39031C248.245 2.36165 249.235 4.55193 249.235 6.98981C249.235 9.50387 247.959 11.4466 245.559 12.3227C244.455 12.7226 243.255 12.894 241.979 13.2178C243.674 16.3223 245.293 19.4649 247.102 22.5122C247.902 23.8645 249.502 23.9788 250.949 24.093C251.406 24.1311 251.844 24.2264 252.301 24.2835C252.301 24.4168 252.282 24.5501 252.282 24.7025C251.844 24.7216 251.406 24.7596 250.949 24.7596C248.949 24.7596 246.931 24.7977 244.931 24.7406C244.55 24.7216 243.997 24.4549 243.826 24.1311C241.693 20.1315 239.598 16.0938 237.503 12.056C237.427 11.9227 237.427 11.7703 237.331 11.4275C238.703 11.4275 239.96 11.4466 241.217 11.4275C244.131 11.3513 245.712 10.2467 246.15 8.01828C246.645 5.56136 245.464 3.16158 242.855 2.20928C241.331 1.65695 239.674 1.50458 238.055 1.39031C235.655 1.23794 235.655 1.35222 233.237 1.33317C232.856 1.33317 232.475 1.29508 232.094 1.27604C232.132 1.14272 232.113 1.02844 232.094 0.933214Z" fill="#50495B"/>
<path d="M66.8516 8.39923V0.857056H63.0805C63.0614 1.19988 63.0234 1.54271 63.0234 1.88554C63.0234 6.58988 63.0614 11.2752 62.9853 15.9795C62.9091 21.0267 60.1665 23.7693 55.1193 24.055C54.7765 24.074 54.4336 24.1693 54.0908 24.2264C54.1099 24.3597 54.1289 24.493 54.1289 24.6264C54.2622 24.6644 54.4146 24.7406 54.5479 24.7406C55.6335 24.6645 56.7192 24.6264 57.7857 24.493C63.8995 23.6741 66.8516 20.341 66.8516 14.2463C66.8706 12.3036 66.8516 10.3419 66.8516 8.39923Z" fill="#50495B"/>
<path d="M92.087 2.24744V0.838047C89.7444 0.495221 80.5833 0.552356 75.6504 0.799953V24.6645H92.068V23.0837H79.6119V13.0274H92.0489V11.4276H79.5929V2.26649H92.087V2.24744Z" fill="#50495B"/>
<path d="M155.187 2.24744V0.838047C152.844 0.495221 143.683 0.552356 138.75 0.799953V24.6645H155.168V23.0837H142.712V13.0274H155.149V11.4276H142.693V2.26649H155.187V2.24744Z" fill="#50495B"/>
<path d="M225.771 2.24744V0.838047C223.428 0.495221 214.267 0.552356 209.334 0.799953V24.6645H225.752V23.0837H213.296V13.0274H225.733V11.4276H213.276V2.26649H225.771V2.24744Z" fill="#50495B"/>
<path d="M191.031 23.0646V21.6552C191.031 18.9887 191.031 16.3223 191.031 13.6559C191.031 9.71337 191.031 5.77086 191.031 1.82836C191.031 1.29507 191.183 0.666557 190.25 0.685603C188.326 0.723695 186.403 0.68561 184.479 0.704656C184.289 0.704656 184.098 0.895115 183.584 1.1808C185.603 1.40935 187.05 1.96169 187.05 3.88533C187.088 8.81822 187.107 13.7321 187.088 18.6649V24.6454H203.563V23.0455H191.031V23.0646Z" fill="#50495B"/>
<path d="M168.804 23.0646V21.6552C168.804 18.9887 168.804 16.3223 168.804 13.6559C168.804 9.71337 168.804 5.77086 168.804 1.82836C168.804 1.29507 168.957 0.666557 168.023 0.685603C166.1 0.723695 164.176 0.68561 162.253 0.704656C162.062 0.704656 161.872 0.895115 161.357 1.1808C163.376 1.40935 164.824 1.96169 164.824 3.88533C164.862 8.81822 164.881 13.7321 164.862 18.6649V24.6454H181.337V23.0455H168.804V23.0646Z" fill="#50495B"/>
<path d="M243.217 0.685669H232.094V1.37133H243.217V0.685669Z" fill="#50495B"/>
</svg>
