<svg width="18" height="20" viewBox="0 0 18 20" fill="none" xmlns="http://www.w3.org/2000/svg">
<path d="M4.45307 6.66665V4.76189C4.45307 2.13197 6.58505 0 9.21499 0C11.8449 0 13.9769 2.13197 13.9769 4.76189V6.66665H16.834C17.36 6.66665 17.7864 7.09305 17.7864 7.61903V19.0476C17.7864 19.5735 17.36 20 16.834 20H1.59593C1.06995 20 0.643555 19.5735 0.643555 19.0476V7.61903C0.643555 7.09305 1.06995 6.66665 1.59593 6.66665H4.45307ZM4.45307 8.57141H2.54831V18.0952H15.8816V8.57141H13.9769V10.4762H12.0721V8.57141H6.35783V10.4762H4.45307V8.57141ZM6.35783 6.66665H12.0721V4.76189C12.0721 3.18394 10.7929 1.90475 9.21499 1.90475C7.63699 1.90475 6.35783 3.18394 6.35783 4.76189V6.66665Z" fill="#50495B"/>
</svg>
