<svg width="40" height="60" viewBox="0 0 40 60" fill="none" xmlns="http://www.w3.org/2000/svg">
<g clip-path="url(#clip0_149_120)">
<path d="M19.7288 60C8.84746 60 0 46.5458 0 30C0 13.4542 8.84746 0 19.7288 0C30.6102 0 39.4576 13.4542 39.4576 30C39.4576 46.5458 30.6102 60 19.7288 60ZM19.7288 1.01695C9.40678 1.01695 1.01695 14.0237 1.01695 30C1.01695 45.9763 9.40678 58.9831 19.7288 58.9831C30.0508 58.9831 38.4407 45.9763 38.4407 30C38.4407 14.0237 30.0508 1.01695 19.7288 1.01695Z" fill="#50495B"/>
<path d="M33.8135 50.695H25.5254V50.1865H33.3051V37.8306H33.8135V50.695Z" fill="#50495B"/>
<path d="M33.8135 22.1695H33.3051V9.81353H25.5254V9.30505H33.8135V22.1695Z" fill="#50495B"/>
<path d="M19.9427 59.6237L19.5156 59.3593L25.2919 50.339L30.2444 30L25.2919 9.66101L19.5156 0.650835L19.9427 0.366089L25.7699 9.49829L30.7733 30L30.7529 30.061L25.7394 50.5729L19.9427 59.6237Z" fill="#50495B"/>
<path d="M38.7353 30.1424L33.376 22.3525L19.2607 13.322L25.3116 9.38644L27.6302 3.2644L28.1082 3.44746L25.7285 9.72203L25.6574 9.77288L20.1963 13.322L33.7726 22.0271L39.1624 29.8576L38.7353 30.1424Z" fill="#50495B"/>
<path d="M27.6302 56.7356L25.3218 50.6136L19.2607 46.7797L33.376 37.6475L38.7353 29.8577L39.1624 30.1424L33.7014 38.0441L20.1963 46.7797L25.7285 50.2678L25.759 50.3492L28.1082 56.5526L27.6302 56.7356Z" fill="#50495B"/>
<path d="M33.6614 22.4034L33.458 21.9356L37.7292 20.0034L37.9326 20.4712L33.6614 22.4034Z" fill="#50495B"/>
<path d="M37.7292 39.9966L33.458 38.0644L33.6614 37.5966L37.9326 39.5288L37.7292 39.9966Z" fill="#50495B"/>
<path d="M13.9327 50.695H5.64453V37.8306H6.15301V50.1865H13.9327V50.695Z" fill="#50495B"/>
<path d="M6.15301 22.1695H5.64453V9.30505H13.9327V9.81353H6.15301V22.1695Z" fill="#50495B"/>
<path d="M19.5151 59.6237L13.688 50.5017L8.68457 30L8.70491 29.939L13.7185 9.42711L19.5151 0.366089L19.9422 0.650835L14.1659 9.66101L9.21338 30L14.1659 50.339L19.9422 59.3593L19.5151 59.6237Z" fill="#50495B"/>
<path d="M0.72204 30.1424L0.294922 29.8576L5.76611 21.9559L19.261 13.322L13.7288 9.7322L11.2576 3.44746L11.7254 3.2644L14.1356 9.38644L20.1966 13.322L6.08136 22.3525L0.72204 30.1424Z" fill="#50495B"/>
<path d="M11.7254 56.7356L11.2576 56.5526L13.7288 50.2678L13.8 50.2272L19.261 46.7797L5.68475 37.9729L0.294922 30.1424L0.72204 29.8577L6.08136 37.6475L20.1966 46.7797L14.1356 50.6136L11.7254 56.7356Z" fill="#50495B"/>
<path d="M1.73789 20.01L1.52832 20.4733L5.79976 22.4055L6.00932 21.9422L1.73789 20.01Z" fill="#50495B"/>
<path d="M5.7942 37.5935L1.52344 39.5272L1.73317 39.9904L6.00393 38.0567L5.7942 37.5935Z" fill="#50495B"/>
</g>
<defs>
<clipPath id="clip0_149_120">
<rect width="39.4576" height="60" fill="white"/>
</clipPath>
</defs>
</svg>
