<svg width="47" height="60" viewBox="0 0 47 60" fill="none" xmlns="http://www.w3.org/2000/svg">
<g clip-path="url(#clip0_149_168)">
<path d="M38.9593 60H7.21017L0 52.7898V7.21017L7.21017 0H38.9593L46.1695 7.21017V52.7898L38.9593 60ZM7.63729 58.9831H38.5322L45.1525 52.3627V7.61695L38.5322 1.01695H7.63729L1.01695 7.63729V52.383L7.63729 58.9831Z" fill="#50495B"/>
<path d="M34.7829 5.2392L32.9541 7.68115L33.3611 7.98595L35.1899 5.544L34.7829 5.2392Z" fill="#50495B"/>
<path d="M9.45954 2.69786L9.05469 3.00549L10.9866 5.54798L11.3915 5.24034L9.45954 2.69786Z" fill="#50495B"/>
<path d="M7.62795 0.357379L7.22754 0.670776L9.05778 3.00917L9.45819 2.69577L7.62795 0.357379Z" fill="#50495B"/>
<path d="M38.5423 0.34627L36.7129 2.6853L37.1134 2.99856L38.9428 0.659528L38.5423 0.34627Z" fill="#50495B"/>
<path d="M36.7152 2.69787L34.7832 5.24036L35.1881 5.54799L37.12 3.00551L36.7152 2.69787Z" fill="#50495B"/>
<path d="M11.3839 5.23252L10.9834 5.54578L12.8128 7.88481L13.2133 7.57155L11.3839 5.23252Z" fill="#50495B"/>
<path d="M33.3554 52.1188L32.9551 52.4323L34.7857 54.7703L35.1861 54.4569L33.3554 52.1188Z" fill="#50495B"/>
<path d="M12.8137 52.1161L10.9814 54.4529L11.3816 54.7666L13.2139 52.4298L12.8137 52.1161Z" fill="#50495B"/>
<path d="M39.2742 59.7458H6.89453L9.15216 56.8882L9.55894 57.2136L7.95216 59.2373H38.2166L36.6098 57.2136L37.0166 56.8882L39.2742 59.7458Z" fill="#50495B"/>
<path d="M35.1861 54.4575L34.7793 54.7626L36.6098 57.2032L37.0166 56.8982L35.1861 54.4575Z" fill="#50495B"/>
<path d="M10.9865 54.4531L9.1543 56.8925L9.56086 57.1978L11.3931 54.7584L10.9865 54.4531Z" fill="#50495B"/>
<path d="M37.658 12.4169L37.3936 11.9898L40.1393 10.3627L40.4037 10.8L37.658 12.4169Z" fill="#50495B"/>
<path d="M43.1447 50.8345L42.8906 51.2749L45.5333 52.7994L45.7874 52.359L43.1447 50.8345Z" fill="#50495B"/>
<path d="M40.1393 49.6373L37.3936 48.0203L37.658 47.5729L40.4037 49.2L40.1393 49.6373Z" fill="#50495B"/>
<path d="M45.5345 7.1974L42.8916 8.72144L43.1456 9.16192L45.7885 7.63788L45.5345 7.1974Z" fill="#50495B"/>
<path d="M40.4031 10.8L40.1387 10.3627L42.8844 8.7356L43.1488 9.17288L40.4031 10.8Z" fill="#50495B"/>
<path d="M42.8844 51.2644L40.1387 49.6372L40.4031 49.2L43.1488 50.8271L42.8844 51.2644Z" fill="#50495B"/>
<path d="M3.12713 50.731L0.380859 52.3604L0.640305 52.7977L3.38657 51.1683L3.12713 50.731Z" fill="#50495B"/>
<path d="M6.0285 10.4598L5.77441 10.9003L8.41706 12.4248L8.67114 11.9843L6.0285 10.4598Z" fill="#50495B"/>
<path d="M5.77182 49.2075L3.12891 50.7316L3.38291 51.1721L6.02582 49.648L5.77182 49.2075Z" fill="#50495B"/>
<path d="M8.41928 47.6737L5.77637 49.1978L6.03037 49.6382L8.67328 48.1142L8.41928 47.6737Z" fill="#50495B"/>
<path d="M3.3837 8.83418L3.11719 9.26721L5.7587 10.8929L6.02521 10.4599L3.3837 8.83418Z" fill="#50495B"/>
<path d="M0.637291 7.20425L0.37793 7.6416L3.12451 9.27039L3.38387 8.83303L0.637291 7.20425Z" fill="#50495B"/>
<path d="M3.50847 9.05087H3V8.74579L9.07119 2.66443L9.43729 3.03053L3.50847 8.94917V9.05087Z" fill="#50495B"/>
<path d="M3.50847 9.0509H3V50.9492H3.50847V9.0509Z" fill="#50495B"/>
<path d="M9.35593 57.3051H9.15254L3 51.1525V50.9492H3.35593L3.43729 50.8678L9.43729 56.8678L9.35593 56.9492V57.3051Z" fill="#50495B"/>
<path d="M36.8131 56.7966H9.35547V57.3051H36.8131V56.7966Z" fill="#50495B"/>
<path d="M37.0978 2.67158L36.7383 3.03113L42.8434 9.13622L43.2029 8.77667L37.0978 2.67158Z" fill="#50495B"/>
<path d="M36.9149 2.59326H9.25391V3.10174H36.9149V2.59326Z" fill="#50495B"/>
<path d="M42.85 50.8638L36.6445 56.8668L36.9981 57.2323L43.2035 51.2292L42.85 50.8638Z" fill="#50495B"/>
<path d="M43.2712 8.9491H42.7627V51.0508H43.2712V8.9491Z" fill="#50495B"/>
<path d="M40.5251 10.5763H40.0166V49.4237H40.5251V10.5763Z" fill="#50495B"/>
<path d="M40.0878 10.7593L34.9014 5.57291L34.9827 5.49155V5.13562H35.1861L40.4539 10.3932L40.0878 10.7593Z" fill="#50495B"/>
<path d="M6.07165 10.7593L6.00046 10.678H5.64453V10.4644L11.0039 5.20679L11.37 5.57289L6.07165 10.7593Z" fill="#50495B"/>
<path d="M34.9831 5.13562H11.1865V5.64409H34.9831V5.13562Z" fill="#50495B"/>
<path d="M34.9831 54.356H11.1865V54.8644H34.9831V54.356Z" fill="#50495B"/>
<path d="M6.15301 10.678H5.64453V49.4237H6.15301V10.678Z" fill="#50495B"/>
<path d="M35.1665 54.7933L34.8105 54.4272L40.0885 49.2407L40.4444 49.6068L35.1665 54.7933Z" fill="#50495B"/>
<path d="M11.186 54.8645H10.9826L5.71484 49.6068L6.08095 49.2407L11.2674 54.4272L11.186 54.5085V54.8645Z" fill="#50495B"/>
<path d="M8.3594 48.0814L8.18652 47.8983V12.2034L8.3594 12.0204L8.64415 12.3051H8.695V47.7967H8.64415L8.3594 48.0814Z" fill="#50495B"/>
<path d="M13.017 52.5254H12.8136L8.35938 48.0813L8.72548 47.7152L13.0984 52.0881L13.017 52.1694V52.5254Z" fill="#50495B"/>
<path d="M32.9691 8.01359L32.9488 7.98308H13.0166V7.47461H33.1522L33.3352 7.64749L33.0505 7.93224V7.98308L32.9691 8.01359Z" fill="#50495B"/>
<path d="M12.8311 7.55435L8.3584 12.0271L8.71794 12.3866L13.1907 7.9139L12.8311 7.55435Z" fill="#50495B"/>
<path d="M37.3413 47.6288L32.9678 52.0996L33.3313 52.4552L37.7048 47.9844L37.3413 47.6288Z" fill="#50495B"/>
<path d="M33.1522 52.017H13.0166V52.5254H33.1522V52.017Z" fill="#50495B"/>
<path d="M33.3263 7.64894L32.9668 8.00854L37.3396 12.3799L37.6991 12.0203L33.3263 7.64894Z" fill="#50495B"/>
<path d="M37.78 12.2034H37.2715V47.7966H37.78V12.2034Z" fill="#50495B"/>
</g>
<defs>
<clipPath id="clip0_149_168">
<rect width="46.1695" height="60" fill="white"/>
</clipPath>
</defs>
</svg>
