<svg width="39" height="60" viewBox="0 0 39 60" fill="none" xmlns="http://www.w3.org/2000/svg">
<g clip-path="url(#clip0_149_266)">
<path d="M19.0637 60C8.37587 60 0 51.3098 0 40.2265C0 31.6072 2.43367 14.967 18.7291 0.304208L19.0637 0L19.4085 0.304208C35.6938 15.0786 38.1274 31.6579 38.1274 40.2265C38.1274 51.3098 29.7516 60 19.0637 60ZM19.0637 1.36894C3.36657 15.687 1.01403 31.8405 1.01403 40.2265C1.01403 50.7014 8.94372 58.986 19.0637 58.986C29.1837 58.986 37.1134 50.7014 37.1134 40.2265C37.1134 31.8912 34.7609 15.7985 19.0637 1.36894Z" fill="#50495B"/>
<path d="M34.2027 52.2427H3.92383L19.0633 0L34.2027 52.2427ZM4.59309 51.7154H33.5334L19.0633 1.83539L4.59309 51.7154Z" fill="#50495B"/>
<path d="M19.0634 48.3083L6.80376 43.4004L0.141602 38.5331L0.313986 38.3202L18.7389 15.6769L12.2795 7.73709L12.6648 7.4126L19.0634 15.2814L25.4619 7.4126L25.8472 7.73709L19.3878 15.6769L37.9851 38.5331L31.4345 43.4004L19.0634 48.3083ZM0.871701 38.452L7.09783 42.9644L19.0634 47.7607L31.2317 42.9441L37.3158 38.452L19.0634 16.0825L0.871701 38.452Z" fill="#50495B"/>
<path d="M10.7484 57.5257L10.3428 57.2114L14.3989 51.8371L19.0533 47.71L24.0321 51.8472L27.7942 57.2215L27.3784 57.5156L23.6367 52.1615L19.0634 48.3691L14.7741 52.1818L10.7484 57.5257Z" fill="#50495B"/>
<path d="M19.0537 59.9797L14.3892 52.121L8.78159 35.643L7.15915 30.1673L6.02344 16.8632L15.6973 11.5193L15.9406 11.9553L6.55073 17.1471L7.65602 30.0659L9.26833 35.4909L14.8455 51.908L19.074 59.0163L23.5965 51.8877L25.7159 45.2256L29.1737 36.6875L30.4716 30.0456L31.5769 16.9545L22.0856 11.9553L22.329 11.5092L32.1042 16.6604L30.9787 30.1166L29.6604 36.8294L26.1924 45.3979L24.0427 52.1311L19.0537 59.9797Z" fill="#50495B"/>
</g>
<defs>
<clipPath id="clip0_149_266">
<rect width="38.1274" height="60" fill="white"/>
</clipPath>
</defs>
</svg>
