<svg width="60" height="60" viewBox="0 0 60 60" fill="none" xmlns="http://www.w3.org/2000/svg">
<g clip-path="url(#clip0_149_300)">
<path d="M30 60L13.9862 58.5103L6.03103 53.969L1.32414 45.8069L0 30L1.33448 13.9759L6.03103 6.03103L14.1931 1.32414L30 0L46.0241 1.33448L53.969 6.03103L58.6655 13.9759L60 30L58.6138 46.0241L53.969 53.969L45.9103 58.5724L30 60ZM14.3897 57.569L30 58.9655L45.6621 57.5483L53.1828 53.2034L57.631 45.5897L58.9655 30L57.6724 14.2966L53.2241 6.77586L45.7034 2.32759L30 1.03448L14.4828 2.34828L6.77586 6.77586L2.32759 14.2966L1.03448 30L2.32759 45.6103L6.77586 53.2241L14.3897 57.569Z" fill="#50495B"/>
<path d="M16.4794 53.8448H6.15527V43.531H6.66217V53.3379H16.4794V53.8448Z" fill="#50495B"/>
<path d="M53.8447 53.8448H43.624V53.3379H53.3378V43.531H53.8447V53.8448Z" fill="#50495B"/>
<path d="M53.8447 16.2724H53.3378V6.66205H43.624V6.15515H53.8447V16.2724Z" fill="#50495B"/>
<path d="M6.66217 16.3758H6.15527V6.15515H16.4794V6.66205H6.66217V16.3758Z" fill="#50495B"/>
<path d="M30.0003 13.7069L16.3555 6.63108L16.5934 6.1759L30.0003 13.138L43.5106 6.1759L43.7486 6.63108L30.0003 13.7069Z" fill="#50495B"/>
<path d="M59.2468 29.8933L53.374 43.4257L53.839 43.6275L59.7118 30.0951L59.2468 29.8933Z" fill="#50495B"/>
<path d="M30.1034 59.731L29.8965 59.2551L43.3758 53.431V43.531L46.3137 30L43.3758 16.4275V6.56892L29.8965 0.734438L30.1034 0.268921L43.8827 6.23789V16.3758L46.8413 30L43.8723 43.5827L43.8827 53.762L30.1034 59.731Z" fill="#50495B"/>
<path d="M16.2203 54.0207V43.531L13.2617 30L13.2721 29.9483L16.2307 16.3138L16.2203 6.23792L29.8962 0.279297L30.1031 0.734469L16.7272 6.56895V16.3758L13.779 30L16.7169 43.469L16.7272 53.1724L29.9997 46.1896L43.7479 53.369L43.51 53.8241L29.9997 46.7586L16.2203 54.0207Z" fill="#50495B"/>
<path d="M16.5776 53.3599L16.375 53.8246L29.8971 59.721L30.0997 59.2563L16.5776 53.3599Z" fill="#50495B"/>
<path d="M53.8217 16.286L53.3564 16.4873L59.252 30.1112L59.7172 29.9099L53.8217 16.286Z" fill="#50495B"/>
<path d="M29.9996 46.7379L16.4168 43.7793H6.20649L0.268555 30.1034L0.734072 29.8965L6.42373 42.9413L13.241 29.9999L5.99959 16.1172H16.4686L29.9996 13.1586H30.0513L43.6858 16.1068H54.0306L46.8617 29.9999L54.0099 43.7793H43.6651L29.9996 46.7379ZM6.82718 43.2724H16.4686L29.9996 46.2206L43.572 43.2827H53.172L46.2927 29.9999L46.3548 29.8862L53.1823 16.6241H43.6237L29.9996 13.6862L16.5513 16.6241H6.82718L13.8099 29.9999L6.82718 43.2724Z" fill="#50495B"/>
<path d="M6.16538 16.2746L0.279297 29.9026L0.744644 30.1036L6.63072 16.4756L6.16538 16.2746Z" fill="#50495B"/>
<path d="M1.94046 13.9073L1.71777 14.3627L6.28999 16.5986L6.51267 16.1433L1.94046 13.9073Z" fill="#50495B"/>
<path d="M14.4661 1.71335L14.0107 1.93604L16.2467 6.50825L16.7021 6.28556L14.4661 1.71335Z" fill="#50495B"/>
<path d="M45.6227 1.7232L43.3867 6.29541L43.8421 6.5181L46.078 1.94588L45.6227 1.7232Z" fill="#50495B"/>
<path d="M53.71 16.6034L53.4824 16.1483L58.0652 13.9034L58.2824 14.3586L53.71 16.6034Z" fill="#50495B"/>
<path d="M58.0652 45.9931L53.4824 43.7586L53.71 43.2931L58.2824 45.5379L58.0652 45.9931Z" fill="#50495B"/>
<path d="M45.6413 58.1793L43.3965 53.7104L43.8517 53.4828L46.0965 57.9518L45.6413 58.1793Z" fill="#50495B"/>
<path d="M14.462 58.1793L14.0068 57.9518L16.2517 53.4828L16.6965 53.7104L14.462 58.1793Z" fill="#50495B"/>
<path d="M6.28608 43.3018L1.71387 45.5377L1.93655 45.9931L6.50877 43.7571L6.28608 43.3018Z" fill="#50495B"/>
</g>
<defs>
<clipPath id="clip0_149_300">
<rect width="60" height="60" fill="white"/>
</clipPath>
</defs>
</svg>
