<svg width="26" height="21" viewBox="0 0 26 21" fill="none" xmlns="http://www.w3.org/2000/svg">
<path d="M13.0924 0.166992H12.7654H5.85072L0.333984 7.75405L12.9892 20.167L13.5106 19.6554L25.6433 7.75405L20.1276 0.166992H13.0924ZM18.9046 1.65832L17.8858 6.18445L14.2807 1.65832H18.9046ZM12.9381 2.08953L16.8603 7.01106H9.09955L12.9381 2.08953ZM11.601 1.65832L8.08608 6.16603V6.16714L7.07371 1.65839H11.601V1.65832ZM5.93115 2.59026L6.92502 7.01106H2.71602L5.93115 2.59026ZM7.32578 8.33187L10.806 15.9385L3.05054 8.33187H7.32578ZM12.9892 17.5373L8.77693 8.33187H17.2003L12.9892 17.5373ZM15.1713 15.9385L18.6515 8.33187H22.9256L15.1713 15.9385ZM19.0523 7.01106L20.0473 2.59026L23.2613 7.01106H19.0523Z" fill="#50495B"/>
</svg>
